<?xml version="1.0" encoding="utf-8"?>
<!-- Generator: Adobe Illustrator 26.0.1, SVG Export Plug-In . SVG Version: 6.00 Build 0)  -->
<svg version="1.1" id="Layer_1" xmlns="http://www.w3.org/2000/svg" xmlns:xlink="http://www.w3.org/1999/xlink" x="0px" y="0px"
	 viewBox="0 0 512 512" style="enable-background:new 0 0 512 512;" xml:space="preserve">
<style type="text/css">
	.st0{fill:#B99044;}
</style>
<path class="st0" d="M368.4,18.3l-55.7,55.8l125.2,125.2l55.7-55.7c21.9-21.9,21.9-57.3,0-79.2l-46-46.1
	C425.7-3.6,390.3-3.6,368.4,18.3L368.4,18.3z M288,94.6l-9.2,2.8l-144.1,43.2c-19.9,6-35.7,21.2-42.3,41L3.8,445.8
	c-3.8,11.3-1,23.9,7.3,32.4l153.6-153.5c-3-6.3-4.7-13.3-4.7-20.7c0-26.5,21.5-48,48-48s48,21.5,48,48s-21.5,48-48,48
	c-7.4,0-14.4-1.7-20.7-4.7L33.7,500.9c8.6,8.3,21.1,11.2,32.4,7.3l264.3-88.6c19.7-6.6,35-22.4,41-42.3l43.2-144.1l2.8-9.2L288,94.6
	z"/>
</svg>
