<?xml version="1.0" encoding="utf-8"?>
<!-- Generator: Adobe Illustrator 26.0.1, SVG Export Plug-In . SVG Version: 6.00 Build 0)  -->
<svg version="1.1" id="Layer_3" xmlns="http://www.w3.org/2000/svg" xmlns:xlink="http://www.w3.org/1999/xlink" x="0px" y="0px"
	 viewBox="0 0 5000 5000" style="enable-background:new 0 0 5000 5000;" xml:space="preserve">
<style type="text/css">
	.st0{fill:#306E99;}
</style>
<circle class="st0" cx="254.8" cy="1357.6" r="127.2"/>
<circle class="st0" cx="816.1" cy="1357.6" r="127.2"/>
<circle class="st0" cx="1377.4" cy="1357.6" r="127.2"/>
<circle class="st0" cx="1938.7" cy="1357.6" r="127.2"/>
<circle class="st0" cx="2500" cy="1357.6" r="127.2"/>
<circle class="st0" cx="3061.3" cy="1357.6" r="127.2"/>
<circle class="st0" cx="3622.6" cy="1357.6" r="127.2"/>
<circle class="st0" cx="4183.9" cy="1357.6" r="127.2"/>
<circle class="st0" cx="4745.2" cy="1357.6" r="127.2"/>
<circle class="st0" cx="254.8" cy="1814.6" r="127.2"/>
<circle class="st0" cx="816.1" cy="1814.6" r="127.2"/>
<circle class="st0" cx="1377.4" cy="1814.6" r="127.2"/>
<circle class="st0" cx="1938.7" cy="1814.6" r="127.2"/>
<circle class="st0" cx="2500" cy="1814.6" r="127.2"/>
<circle class="st0" cx="3061.3" cy="1814.6" r="127.2"/>
<circle class="st0" cx="3622.6" cy="1814.6" r="127.2"/>
<circle class="st0" cx="4183.9" cy="1814.6" r="127.2"/>
<circle class="st0" cx="4745.2" cy="1814.6" r="127.2"/>
<circle class="st0" cx="254.8" cy="2271.5" r="127.2"/>
<circle class="st0" cx="816.1" cy="2271.5" r="127.2"/>
<circle class="st0" cx="1377.4" cy="2271.5" r="127.2"/>
<circle class="st0" cx="1938.7" cy="2271.5" r="127.2"/>
<circle class="st0" cx="2500" cy="2271.5" r="127.2"/>
<circle class="st0" cx="3061.3" cy="2271.5" r="127.2"/>
<circle class="st0" cx="3622.6" cy="2271.5" r="127.2"/>
<circle class="st0" cx="4183.9" cy="2271.5" r="127.2"/>
<circle class="st0" cx="4745.2" cy="2271.5" r="127.2"/>
<circle class="st0" cx="254.8" cy="2728.5" r="127.2"/>
<circle class="st0" cx="816.1" cy="2728.5" r="127.2"/>
<circle class="st0" cx="1377.4" cy="2728.5" r="127.2"/>
<circle class="st0" cx="1938.7" cy="2728.5" r="127.2"/>
<circle class="st0" cx="2500" cy="2728.5" r="127.2"/>
<circle class="st0" cx="3061.3" cy="2728.5" r="127.2"/>
<circle class="st0" cx="3622.6" cy="2728.5" r="127.2"/>
<circle class="st0" cx="4183.9" cy="2728.5" r="127.2"/>
<circle class="st0" cx="4745.2" cy="2728.5" r="127.2"/>
<circle class="st0" cx="254.8" cy="3185.4" r="127.2"/>
<circle class="st0" cx="816.1" cy="3185.4" r="127.2"/>
<circle class="st0" cx="1377.4" cy="3185.4" r="127.2"/>
<circle class="st0" cx="1938.7" cy="3185.4" r="127.2"/>
<circle class="st0" cx="2500" cy="3185.4" r="127.2"/>
<circle class="st0" cx="3061.3" cy="3185.4" r="127.2"/>
<circle class="st0" cx="3622.6" cy="3185.4" r="127.2"/>
<circle class="st0" cx="4183.9" cy="3185.4" r="127.2"/>
<circle class="st0" cx="4745.2" cy="3185.4" r="127.2"/>
<circle class="st0" cx="254.8" cy="3642.4" r="127.2"/>
<circle class="st0" cx="816.1" cy="3642.4" r="127.2"/>
<circle class="st0" cx="1377.4" cy="3642.4" r="127.2"/>
<circle class="st0" cx="1938.7" cy="3642.4" r="127.2"/>
<circle class="st0" cx="2500" cy="3642.4" r="127.2"/>
<circle class="st0" cx="3061.3" cy="3642.4" r="127.2"/>
<circle class="st0" cx="3622.6" cy="3642.4" r="127.2"/>
<circle class="st0" cx="4183.9" cy="3642.4" r="127.2"/>
<circle class="st0" cx="4745.2" cy="3642.4" r="127.2"/>
</svg>
